<mxfile host="app.diagrams.net" modified="2023-12-18T16:36:16.041Z" agent="Mozilla/5.0 (Macintosh; Intel Mac OS X 10_15_7) AppleWebKit/537.36 (KHTML, like Gecko) Chrome/120.0.0.0 Safari/537.36" etag="IvkSRUN5kTGPqHSvUNNS" version="22.1.11" type="github">
  <diagram name="Страница — 1" id="DCO2adIk4ktqc4p3Er-f">
    <mxGraphModel dx="3274" dy="2679" grid="1" gridSize="10" guides="1" tooltips="1" connect="1" arrows="1" fold="1" page="0" pageScale="1" pageWidth="827" pageHeight="1169" math="0" shadow="0">
      <root>
        <mxCell id="0" />
        <mxCell id="1" parent="0" />
        <mxCell id="7NpBARmA--catoXs38UZ-27" value="" style="group" parent="1" vertex="1" connectable="0">
          <mxGeometry x="-440" y="340" width="580" height="790" as="geometry" />
        </mxCell>
        <mxCell id="7NpBARmA--catoXs38UZ-1" value="" style="rounded=0;whiteSpace=wrap;html=1;" parent="7NpBARmA--catoXs38UZ-27" vertex="1">
          <mxGeometry y="30" width="540" height="760" as="geometry" />
        </mxCell>
        <mxCell id="7NpBARmA--catoXs38UZ-10" value="AIDL Service" style="rounded=1;whiteSpace=wrap;html=1;" parent="7NpBARmA--catoXs38UZ-27" vertex="1">
          <mxGeometry x="440" y="72.5" width="120" height="100" as="geometry" />
        </mxCell>
        <mxCell id="7NpBARmA--catoXs38UZ-34" value="" style="rounded=0;whiteSpace=wrap;html=1;" parent="7NpBARmA--catoXs38UZ-27" vertex="1">
          <mxGeometry x="270" y="340" width="170" height="360" as="geometry" />
        </mxCell>
        <mxCell id="7NpBARmA--catoXs38UZ-58" style="edgeStyle=orthogonalEdgeStyle;rounded=0;orthogonalLoop=1;jettySize=auto;html=1;exitX=0;exitY=0.5;exitDx=0;exitDy=0;" parent="7NpBARmA--catoXs38UZ-27" source="7NpBARmA--catoXs38UZ-85" edge="1">
          <mxGeometry relative="1" as="geometry">
            <mxPoint x="270" y="497.5238095238094" as="sourcePoint" />
            <mxPoint x="190" y="60" as="targetPoint" />
            <Array as="points">
              <mxPoint x="190" y="650" />
            </Array>
          </mxGeometry>
        </mxCell>
        <mxCell id="7NpBARmA--catoXs38UZ-59" value="submit" style="edgeLabel;html=1;align=center;verticalAlign=middle;resizable=0;points=[];" parent="7NpBARmA--catoXs38UZ-58" vertex="1" connectable="0">
          <mxGeometry x="-0.4888" y="4" relative="1" as="geometry">
            <mxPoint as="offset" />
          </mxGeometry>
        </mxCell>
        <mxCell id="7NpBARmA--catoXs38UZ-49" value="" style="endArrow=classic;html=1;rounded=0;exitX=0.997;exitY=0.352;exitDx=0;exitDy=0;exitPerimeter=0;entryX=1.001;entryY=0.083;entryDx=0;entryDy=0;entryPerimeter=0;" parent="7NpBARmA--catoXs38UZ-27" source="7NpBARmA--catoXs38UZ-1" target="7NpBARmA--catoXs38UZ-34" edge="1">
          <mxGeometry width="50" height="50" relative="1" as="geometry">
            <mxPoint x="810" y="280" as="sourcePoint" />
            <mxPoint x="860" y="230" as="targetPoint" />
            <Array as="points">
              <mxPoint x="500" y="298" />
              <mxPoint x="500" y="370" />
            </Array>
          </mxGeometry>
        </mxCell>
        <mxCell id="7NpBARmA--catoXs38UZ-54" style="edgeStyle=orthogonalEdgeStyle;rounded=0;orthogonalLoop=1;jettySize=auto;html=1;" parent="7NpBARmA--catoXs38UZ-27" source="7NpBARmA--catoXs38UZ-10" edge="1">
          <mxGeometry relative="1" as="geometry">
            <mxPoint x="404" y="340" as="targetPoint" />
          </mxGeometry>
        </mxCell>
        <mxCell id="7NpBARmA--catoXs38UZ-100" style="edgeStyle=orthogonalEdgeStyle;rounded=0;orthogonalLoop=1;jettySize=auto;html=1;" parent="7NpBARmA--catoXs38UZ-27" source="7NpBARmA--catoXs38UZ-69" target="7NpBARmA--catoXs38UZ-36" edge="1">
          <mxGeometry relative="1" as="geometry">
            <Array as="points">
              <mxPoint x="100" y="80" />
              <mxPoint x="100" y="80" />
            </Array>
          </mxGeometry>
        </mxCell>
        <mxCell id="7NpBARmA--catoXs38UZ-69" value="Токен авторизации&lt;br style=&quot;border-color: var(--border-color);&quot;&gt;для сетевых запросов" style="rounded=0;whiteSpace=wrap;html=1;" parent="7NpBARmA--catoXs38UZ-27" vertex="1">
          <mxGeometry x="40" y="140" width="120" height="60" as="geometry" />
        </mxCell>
        <mxCell id="7NpBARmA--catoXs38UZ-96" style="edgeStyle=orthogonalEdgeStyle;rounded=0;orthogonalLoop=1;jettySize=auto;html=1;entryX=0.5;entryY=1;entryDx=0;entryDy=0;" parent="7NpBARmA--catoXs38UZ-27" source="7NpBARmA--catoXs38UZ-83" target="7NpBARmA--catoXs38UZ-92" edge="1">
          <mxGeometry relative="1" as="geometry" />
        </mxCell>
        <mxCell id="7NpBARmA--catoXs38UZ-97" value="SharedToken" style="edgeLabel;html=1;align=center;verticalAlign=middle;resizable=0;points=[];" parent="7NpBARmA--catoXs38UZ-96" vertex="1" connectable="0">
          <mxGeometry x="0.0512" y="1" relative="1" as="geometry">
            <mxPoint as="offset" />
          </mxGeometry>
        </mxCell>
        <mxCell id="7NpBARmA--catoXs38UZ-83" value="Проверка токена и авторизация" style="rounded=0;whiteSpace=wrap;html=1;" parent="7NpBARmA--catoXs38UZ-27" vertex="1">
          <mxGeometry x="290" y="365" width="120" height="60" as="geometry" />
        </mxCell>
        <mxCell id="7NpBARmA--catoXs38UZ-84" value="Продажа&lt;br&gt;оплата&lt;br&gt;печать чека" style="rounded=0;whiteSpace=wrap;html=1;" parent="7NpBARmA--catoXs38UZ-27" vertex="1">
          <mxGeometry x="290" y="540" width="120" height="60" as="geometry" />
        </mxCell>
        <mxCell id="7NpBARmA--catoXs38UZ-85" value="Выгрузка" style="rounded=0;whiteSpace=wrap;html=1;" parent="7NpBARmA--catoXs38UZ-27" vertex="1">
          <mxGeometry x="285" y="620" width="120" height="60" as="geometry" />
        </mxCell>
        <mxCell id="7NpBARmA--catoXs38UZ-86" value="Продажа" style="text;html=1;strokeColor=none;fillColor=none;align=center;verticalAlign=middle;whiteSpace=wrap;rounded=0;" parent="7NpBARmA--catoXs38UZ-27" vertex="1">
          <mxGeometry x="270" y="310" width="60" height="30" as="geometry" />
        </mxCell>
        <mxCell id="7NpBARmA--catoXs38UZ-88" value="" style="group" parent="7NpBARmA--catoXs38UZ-27" vertex="1" connectable="0">
          <mxGeometry x="30" width="230" height="60" as="geometry" />
        </mxCell>
        <mxCell id="7NpBARmA--catoXs38UZ-89" value="" style="group" parent="7NpBARmA--catoXs38UZ-88" vertex="1" connectable="0">
          <mxGeometry width="230" height="60" as="geometry" />
        </mxCell>
        <mxCell id="7NpBARmA--catoXs38UZ-36" value="REST API" style="rounded=1;whiteSpace=wrap;html=1;" parent="7NpBARmA--catoXs38UZ-89" vertex="1">
          <mxGeometry x="50" width="180" height="60" as="geometry" />
        </mxCell>
        <mxCell id="7NpBARmA--catoXs38UZ-87" value="secured" style="text;html=1;strokeColor=none;fillColor=none;align=center;verticalAlign=middle;whiteSpace=wrap;rounded=0;" parent="7NpBARmA--catoXs38UZ-89" vertex="1">
          <mxGeometry x="50" width="49.285714285714285" height="30" as="geometry" />
        </mxCell>
        <mxCell id="7NpBARmA--catoXs38UZ-98" style="edgeStyle=orthogonalEdgeStyle;rounded=0;orthogonalLoop=1;jettySize=auto;html=1;entryX=1;entryY=0.5;entryDx=0;entryDy=0;" parent="7NpBARmA--catoXs38UZ-27" source="7NpBARmA--catoXs38UZ-92" target="7NpBARmA--catoXs38UZ-69" edge="1">
          <mxGeometry relative="1" as="geometry">
            <Array as="points">
              <mxPoint x="320" y="170" />
            </Array>
          </mxGeometry>
        </mxCell>
        <mxCell id="7NpBARmA--catoXs38UZ-99" value="authToken" style="edgeLabel;html=1;align=center;verticalAlign=middle;resizable=0;points=[];" parent="7NpBARmA--catoXs38UZ-98" vertex="1" connectable="0">
          <mxGeometry x="0.1307" y="-2" relative="1" as="geometry">
            <mxPoint as="offset" />
          </mxGeometry>
        </mxCell>
        <mxCell id="7NpBARmA--catoXs38UZ-92" value="REST API" style="rounded=1;whiteSpace=wrap;html=1;" parent="7NpBARmA--catoXs38UZ-27" vertex="1">
          <mxGeometry x="295" width="110" height="60" as="geometry" />
        </mxCell>
        <mxCell id="7NpBARmA--catoXs38UZ-101" value="Загрузка заказа" style="rounded=0;whiteSpace=wrap;html=1;" parent="7NpBARmA--catoXs38UZ-27" vertex="1">
          <mxGeometry x="290" y="450" width="120" height="60" as="geometry" />
        </mxCell>
        <mxCell id="7NpBARmA--catoXs38UZ-7" value="МП ТА" style="text;html=1;strokeColor=none;fillColor=none;align=center;verticalAlign=middle;whiteSpace=wrap;rounded=0;" parent="7NpBARmA--catoXs38UZ-27" vertex="1">
          <mxGeometry width="60" height="30" as="geometry" />
        </mxCell>
        <mxCell id="7NpBARmA--catoXs38UZ-228" value="Intent" style="rounded=1;whiteSpace=wrap;html=1;" parent="7NpBARmA--catoXs38UZ-27" vertex="1">
          <mxGeometry x="490" y="670" width="90" height="45" as="geometry" />
        </mxCell>
        <mxCell id="7NpBARmA--catoXs38UZ-28" value="" style="group" parent="1" vertex="1" connectable="0">
          <mxGeometry x="410" y="335" width="580" height="800" as="geometry" />
        </mxCell>
        <mxCell id="7NpBARmA--catoXs38UZ-2" value="" style="rounded=0;whiteSpace=wrap;html=1;" parent="7NpBARmA--catoXs38UZ-28" vertex="1">
          <mxGeometry y="30" width="580" height="770" as="geometry" />
        </mxCell>
        <mxCell id="7NpBARmA--catoXs38UZ-8" value="МП МРМЭ" style="text;html=1;strokeColor=none;fillColor=none;align=center;verticalAlign=middle;whiteSpace=wrap;rounded=0;" parent="7NpBARmA--catoXs38UZ-28" vertex="1">
          <mxGeometry width="100" height="30" as="geometry" />
        </mxCell>
        <mxCell id="7NpBARmA--catoXs38UZ-14" value="Блокировка" style="rounded=0;whiteSpace=wrap;html=1;" parent="7NpBARmA--catoXs38UZ-28" vertex="1">
          <mxGeometry x="30" y="85" width="170" height="75" as="geometry" />
        </mxCell>
        <mxCell id="7NpBARmA--catoXs38UZ-33" value="Прибыл на точку" style="rounded=0;whiteSpace=wrap;html=1;" parent="7NpBARmA--catoXs38UZ-28" vertex="1">
          <mxGeometry x="60" y="275" width="170" height="75" as="geometry" />
        </mxCell>
        <mxCell id="7NpBARmA--catoXs38UZ-46" value="Intent" style="rounded=1;whiteSpace=wrap;html=1;" parent="7NpBARmA--catoXs38UZ-28" vertex="1">
          <mxGeometry x="-20" y="275" width="90" height="45" as="geometry" />
        </mxCell>
        <mxCell id="7NpBARmA--catoXs38UZ-48" value="AIDL Service" style="rounded=1;whiteSpace=wrap;html=1;" parent="7NpBARmA--catoXs38UZ-28" vertex="1">
          <mxGeometry x="-35" y="355" width="135" height="142.5" as="geometry" />
        </mxCell>
        <mxCell id="7NpBARmA--catoXs38UZ-71" style="edgeStyle=orthogonalEdgeStyle;rounded=0;orthogonalLoop=1;jettySize=auto;html=1;exitX=0.423;exitY=1.026;exitDx=0;exitDy=0;exitPerimeter=0;" parent="7NpBARmA--catoXs38UZ-28" source="7NpBARmA--catoXs38UZ-9" target="7NpBARmA--catoXs38UZ-46" edge="1">
          <mxGeometry relative="1" as="geometry">
            <Array as="points">
              <mxPoint x="215" y="195" />
              <mxPoint x="25" y="195" />
            </Array>
          </mxGeometry>
        </mxCell>
        <mxCell id="7NpBARmA--catoXs38UZ-72" value="SharedTioken" style="edgeLabel;html=1;align=center;verticalAlign=middle;resizable=0;points=[];" parent="7NpBARmA--catoXs38UZ-71" vertex="1" connectable="0">
          <mxGeometry x="0.1148" relative="1" as="geometry">
            <mxPoint as="offset" />
          </mxGeometry>
        </mxCell>
        <mxCell id="7NpBARmA--catoXs38UZ-77" style="edgeStyle=orthogonalEdgeStyle;rounded=0;orthogonalLoop=1;jettySize=auto;html=1;entryX=0;entryY=0.5;entryDx=0;entryDy=0;" parent="7NpBARmA--catoXs38UZ-28" source="7NpBARmA--catoXs38UZ-9" target="7NpBARmA--catoXs38UZ-76" edge="1">
          <mxGeometry relative="1" as="geometry">
            <Array as="points">
              <mxPoint x="250" y="163" />
            </Array>
          </mxGeometry>
        </mxCell>
        <mxCell id="7NpBARmA--catoXs38UZ-78" value="authToken" style="edgeLabel;html=1;align=center;verticalAlign=middle;resizable=0;points=[];" parent="7NpBARmA--catoXs38UZ-77" vertex="1" connectable="0">
          <mxGeometry x="0.3543" y="2" relative="1" as="geometry">
            <mxPoint as="offset" />
          </mxGeometry>
        </mxCell>
        <mxCell id="wisPoEuZqD0PyO1cnrEd-69" style="edgeStyle=orthogonalEdgeStyle;rounded=0;orthogonalLoop=1;jettySize=auto;html=1;" parent="7NpBARmA--catoXs38UZ-28" source="7NpBARmA--catoXs38UZ-9" target="wisPoEuZqD0PyO1cnrEd-68" edge="1">
          <mxGeometry relative="1" as="geometry">
            <Array as="points">
              <mxPoint x="240" y="285" />
            </Array>
          </mxGeometry>
        </mxCell>
        <mxCell id="wisPoEuZqD0PyO1cnrEd-70" value="SharedToken" style="edgeLabel;html=1;align=center;verticalAlign=middle;resizable=0;points=[];" parent="wisPoEuZqD0PyO1cnrEd-69" vertex="1" connectable="0">
          <mxGeometry x="0.6698" relative="1" as="geometry">
            <mxPoint as="offset" />
          </mxGeometry>
        </mxCell>
        <mxCell id="7NpBARmA--catoXs38UZ-9" value="REST API" style="rounded=1;whiteSpace=wrap;html=1;" parent="7NpBARmA--catoXs38UZ-28" vertex="1">
          <mxGeometry x="160" y="15" width="110" height="60" as="geometry" />
        </mxCell>
        <mxCell id="7NpBARmA--catoXs38UZ-76" value="Токен авторизации&lt;br&gt;для сетевых запросов" style="rounded=0;whiteSpace=wrap;html=1;" parent="7NpBARmA--catoXs38UZ-28" vertex="1">
          <mxGeometry x="340" y="125" width="170" height="75" as="geometry" />
        </mxCell>
        <mxCell id="7NpBARmA--catoXs38UZ-81" style="edgeStyle=orthogonalEdgeStyle;rounded=0;orthogonalLoop=1;jettySize=auto;html=1;" parent="7NpBARmA--catoXs38UZ-28" source="7NpBARmA--catoXs38UZ-79" edge="1">
          <mxGeometry relative="1" as="geometry">
            <mxPoint x="430" y="-125" as="targetPoint" />
          </mxGeometry>
        </mxCell>
        <mxCell id="7NpBARmA--catoXs38UZ-80" style="edgeStyle=orthogonalEdgeStyle;rounded=0;orthogonalLoop=1;jettySize=auto;html=1;entryX=0.475;entryY=0.963;entryDx=0;entryDy=0;entryPerimeter=0;" parent="7NpBARmA--catoXs38UZ-28" source="7NpBARmA--catoXs38UZ-76" target="7NpBARmA--catoXs38UZ-79" edge="1">
          <mxGeometry relative="1" as="geometry" />
        </mxCell>
        <mxCell id="7NpBARmA--catoXs38UZ-91" value="" style="group" parent="7NpBARmA--catoXs38UZ-28" vertex="1" connectable="0">
          <mxGeometry x="320" width="220" height="60" as="geometry" />
        </mxCell>
        <mxCell id="7NpBARmA--catoXs38UZ-79" value="REST API" style="rounded=1;whiteSpace=wrap;html=1;" parent="7NpBARmA--catoXs38UZ-91" vertex="1">
          <mxGeometry width="220" height="60" as="geometry" />
        </mxCell>
        <mxCell id="7NpBARmA--catoXs38UZ-90" value="secured" style="text;html=1;strokeColor=none;fillColor=none;align=center;verticalAlign=middle;whiteSpace=wrap;rounded=0;" parent="7NpBARmA--catoXs38UZ-91" vertex="1">
          <mxGeometry width="60" height="30" as="geometry" />
        </mxCell>
        <mxCell id="wisPoEuZqD0PyO1cnrEd-71" style="edgeStyle=orthogonalEdgeStyle;rounded=0;orthogonalLoop=1;jettySize=auto;html=1;" parent="7NpBARmA--catoXs38UZ-28" source="wisPoEuZqD0PyO1cnrEd-68" target="7NpBARmA--catoXs38UZ-46" edge="1">
          <mxGeometry relative="1" as="geometry">
            <Array as="points">
              <mxPoint x="430" y="235" />
              <mxPoint x="40" y="235" />
            </Array>
          </mxGeometry>
        </mxCell>
        <mxCell id="wisPoEuZqD0PyO1cnrEd-68" value="Токен авторизации&lt;br&gt;для взаимодействия между приложениями" style="rounded=0;whiteSpace=wrap;html=1;" parent="7NpBARmA--catoXs38UZ-28" vertex="1">
          <mxGeometry x="345" y="260" width="170" height="75" as="geometry" />
        </mxCell>
        <mxCell id="7NpBARmA--catoXs38UZ-20" style="edgeStyle=orthogonalEdgeStyle;rounded=0;orthogonalLoop=1;jettySize=auto;html=1;" parent="1" source="7NpBARmA--catoXs38UZ-14" target="7NpBARmA--catoXs38UZ-10" edge="1">
          <mxGeometry relative="1" as="geometry">
            <mxPoint x="130" y="479" as="targetPoint" />
            <Array as="points">
              <mxPoint x="150" y="480" />
              <mxPoint x="150" y="480" />
            </Array>
          </mxGeometry>
        </mxCell>
        <mxCell id="7NpBARmA--catoXs38UZ-22" value="Отмена продажи" style="edgeLabel;html=1;align=center;verticalAlign=middle;resizable=0;points=[];" parent="7NpBARmA--catoXs38UZ-20" vertex="1" connectable="0">
          <mxGeometry x="0.0307" relative="1" as="geometry">
            <mxPoint as="offset" />
          </mxGeometry>
        </mxCell>
        <mxCell id="7NpBARmA--catoXs38UZ-23" style="edgeStyle=orthogonalEdgeStyle;rounded=0;orthogonalLoop=1;jettySize=auto;html=1;entryX=1.008;entryY=0.335;entryDx=0;entryDy=0;entryPerimeter=0;" parent="1" target="7NpBARmA--catoXs38UZ-10" edge="1">
          <mxGeometry relative="1" as="geometry">
            <mxPoint x="440" y="439" as="sourcePoint" />
            <mxPoint x="160" y="445" as="targetPoint" />
          </mxGeometry>
        </mxCell>
        <mxCell id="7NpBARmA--catoXs38UZ-24" value="Запрос состояния продажи" style="edgeLabel;html=1;align=center;verticalAlign=middle;resizable=0;points=[];" parent="7NpBARmA--catoXs38UZ-23" vertex="1" connectable="0">
          <mxGeometry x="-0.1487" relative="1" as="geometry">
            <mxPoint as="offset" />
          </mxGeometry>
        </mxCell>
        <mxCell id="7NpBARmA--catoXs38UZ-25" value="" style="group" parent="1" vertex="1" connectable="0">
          <mxGeometry x="-460" y="110" width="540" height="140" as="geometry" />
        </mxCell>
        <mxCell id="7NpBARmA--catoXs38UZ-3" value="" style="rounded=0;whiteSpace=wrap;html=1;" parent="7NpBARmA--catoXs38UZ-25" vertex="1">
          <mxGeometry y="18.26086956521739" width="540" height="121.7391304347826" as="geometry" />
        </mxCell>
        <mxCell id="7NpBARmA--catoXs38UZ-5" value="Бэкенд ТА" style="text;html=1;strokeColor=none;fillColor=none;align=center;verticalAlign=middle;whiteSpace=wrap;rounded=0;" parent="7NpBARmA--catoXs38UZ-25" vertex="1">
          <mxGeometry width="100" height="18.26086956521739" as="geometry" />
        </mxCell>
        <mxCell id="7NpBARmA--catoXs38UZ-26" value="" style="group" parent="1" vertex="1" connectable="0">
          <mxGeometry x="420" y="80" width="590" height="160" as="geometry" />
        </mxCell>
        <mxCell id="7NpBARmA--catoXs38UZ-4" value="" style="rounded=0;whiteSpace=wrap;html=1;" parent="7NpBARmA--catoXs38UZ-26" vertex="1">
          <mxGeometry y="26.666666666666668" width="590" height="133.33333333333334" as="geometry" />
        </mxCell>
        <mxCell id="7NpBARmA--catoXs38UZ-6" value="Бэкенд МРМЭ" style="text;html=1;strokeColor=none;fillColor=none;align=center;verticalAlign=middle;whiteSpace=wrap;rounded=0;" parent="7NpBARmA--catoXs38UZ-26" vertex="1">
          <mxGeometry width="100" height="26.666666666666668" as="geometry" />
        </mxCell>
        <mxCell id="7NpBARmA--catoXs38UZ-37" value="" style="endArrow=classic;html=1;rounded=0;entryX=1;entryY=0.353;entryDx=0;entryDy=0;entryPerimeter=0;" parent="1" target="7NpBARmA--catoXs38UZ-1" edge="1">
          <mxGeometry width="50" height="50" relative="1" as="geometry">
            <mxPoint x="390" y="638" as="sourcePoint" />
            <mxPoint x="420" y="570" as="targetPoint" />
          </mxGeometry>
        </mxCell>
        <mxCell id="7NpBARmA--catoXs38UZ-38" value="Открытие заказа на продажу&lt;br&gt;Параметры:&lt;br&gt;Номер заказа&lt;br&gt;SharedToken" style="edgeLabel;html=1;align=center;verticalAlign=middle;resizable=0;points=[];" parent="7NpBARmA--catoXs38UZ-37" vertex="1" connectable="0">
          <mxGeometry x="-0.003" y="-2" relative="1" as="geometry">
            <mxPoint as="offset" />
          </mxGeometry>
        </mxCell>
        <mxCell id="7NpBARmA--catoXs38UZ-50" style="edgeStyle=orthogonalEdgeStyle;rounded=0;orthogonalLoop=1;jettySize=auto;html=1;entryX=0.005;entryY=0.338;entryDx=0;entryDy=0;entryPerimeter=0;startArrow=none;startFill=0;endArrow=classic;endFill=1;exitX=1;exitY=0.5;exitDx=0;exitDy=0;" parent="1" source="7NpBARmA--catoXs38UZ-101" target="7NpBARmA--catoXs38UZ-48" edge="1">
          <mxGeometry relative="1" as="geometry">
            <mxPoint x="310" y="790" as="targetPoint" />
            <Array as="points">
              <mxPoint x="130" y="820" />
              <mxPoint x="130" y="738" />
            </Array>
          </mxGeometry>
        </mxCell>
        <mxCell id="7NpBARmA--catoXs38UZ-51" value="1: Получение заказа" style="edgeLabel;html=1;align=center;verticalAlign=middle;resizable=0;points=[];" parent="7NpBARmA--catoXs38UZ-50" vertex="1" connectable="0">
          <mxGeometry x="0.1479" y="2" relative="1" as="geometry">
            <mxPoint as="offset" />
          </mxGeometry>
        </mxCell>
        <mxCell id="7NpBARmA--catoXs38UZ-61" style="edgeStyle=orthogonalEdgeStyle;rounded=0;orthogonalLoop=1;jettySize=auto;html=1;entryX=0;entryY=0.75;entryDx=0;entryDy=0;exitX=0.988;exitY=0.625;exitDx=0;exitDy=0;exitPerimeter=0;" parent="1" source="7NpBARmA--catoXs38UZ-85" target="7NpBARmA--catoXs38UZ-48" edge="1">
          <mxGeometry relative="1" as="geometry">
            <mxPoint y="810" as="sourcePoint" />
            <mxPoint x="375" y="780" as="targetPoint" />
          </mxGeometry>
        </mxCell>
        <mxCell id="7NpBARmA--catoXs38UZ-62" value="2: Выгрузка выкупленного заказа" style="edgeLabel;html=1;align=center;verticalAlign=middle;resizable=0;points=[];" parent="7NpBARmA--catoXs38UZ-61" vertex="1" connectable="0">
          <mxGeometry x="0.0575" y="-2" relative="1" as="geometry">
            <mxPoint as="offset" />
          </mxGeometry>
        </mxCell>
        <mxCell id="7NpBARmA--catoXs38UZ-15" style="edgeStyle=orthogonalEdgeStyle;rounded=0;orthogonalLoop=1;jettySize=auto;html=1;entryX=0.354;entryY=1.013;entryDx=0;entryDy=0;entryPerimeter=0;startArrow=classic;startFill=1;" parent="1" source="7NpBARmA--catoXs38UZ-9" target="7NpBARmA--catoXs38UZ-4" edge="1">
          <mxGeometry relative="1" as="geometry">
            <Array as="points">
              <mxPoint x="629" y="300" />
              <mxPoint x="629" y="300" />
            </Array>
          </mxGeometry>
        </mxCell>
        <mxCell id="7NpBARmA--catoXs38UZ-16" value="/login" style="edgeLabel;html=1;align=center;verticalAlign=middle;resizable=0;points=[];" parent="7NpBARmA--catoXs38UZ-15" vertex="1" connectable="0">
          <mxGeometry x="0.1513" relative="1" as="geometry">
            <mxPoint y="-22" as="offset" />
          </mxGeometry>
        </mxCell>
        <mxCell id="7NpBARmA--catoXs38UZ-74" value="Response:&lt;br style=&quot;border-color: var(--border-color); font-size: 12px;&quot;&gt;&lt;span style=&quot;font-size: 12px;&quot;&gt;authToken&lt;/span&gt;&lt;br style=&quot;border-color: var(--border-color); font-size: 12px;&quot;&gt;&lt;span style=&quot;font-size: 12px;&quot;&gt;sharedToken&lt;/span&gt;" style="edgeLabel;html=1;align=center;verticalAlign=middle;resizable=0;points=[];" parent="7NpBARmA--catoXs38UZ-15" vertex="1" connectable="0">
          <mxGeometry x="-0.451" relative="1" as="geometry">
            <mxPoint y="31" as="offset" />
          </mxGeometry>
        </mxCell>
        <mxCell id="7NpBARmA--catoXs38UZ-93" style="edgeStyle=orthogonalEdgeStyle;rounded=0;orthogonalLoop=1;jettySize=auto;html=1;" parent="1" source="7NpBARmA--catoXs38UZ-92" edge="1">
          <mxGeometry relative="1" as="geometry">
            <mxPoint x="-93" y="251" as="targetPoint" />
            <Array as="points">
              <mxPoint x="-93" y="296" />
              <mxPoint x="-92" y="296" />
              <mxPoint x="-92" y="251" />
            </Array>
          </mxGeometry>
        </mxCell>
        <mxCell id="7NpBARmA--catoXs38UZ-94" value="/auth_by_key&lt;br&gt;Request: sharedToken" style="edgeLabel;html=1;align=center;verticalAlign=middle;resizable=0;points=[];" parent="7NpBARmA--catoXs38UZ-93" vertex="1" connectable="0">
          <mxGeometry x="0.1072" y="1" relative="1" as="geometry">
            <mxPoint x="-1" y="-16" as="offset" />
          </mxGeometry>
        </mxCell>
        <mxCell id="7NpBARmA--catoXs38UZ-102" value="Response:&lt;br&gt;authToken" style="edgeLabel;html=1;align=center;verticalAlign=middle;resizable=0;points=[];" parent="7NpBARmA--catoXs38UZ-93" vertex="1" connectable="0">
          <mxGeometry x="-0.7603" y="-2" relative="1" as="geometry">
            <mxPoint x="-2" y="12" as="offset" />
          </mxGeometry>
        </mxCell>
        <mxCell id="7NpBARmA--catoXs38UZ-118" value="" style="shape=flexArrow;endArrow=classic;html=1;rounded=0;exitX=0.5;exitY=0;exitDx=0;exitDy=0;startArrow=block;entryX=0.351;entryY=0.991;entryDx=0;entryDy=0;entryPerimeter=0;" parent="1" source="7NpBARmA--catoXs38UZ-36" target="7NpBARmA--catoXs38UZ-3" edge="1">
          <mxGeometry width="50" height="50" relative="1" as="geometry">
            <mxPoint x="-170" y="70" as="sourcePoint" />
            <mxPoint x="-350" y="300" as="targetPoint" />
          </mxGeometry>
        </mxCell>
        <mxCell id="7NpBARmA--catoXs38UZ-127" value="" style="group" parent="1" vertex="1" connectable="0">
          <mxGeometry x="-430" y="-790" width="590" height="670" as="geometry" />
        </mxCell>
        <mxCell id="7NpBARmA--catoXs38UZ-125" value="" style="rounded=0;whiteSpace=wrap;html=1;strokeColor=default;gradientColor=none;" parent="7NpBARmA--catoXs38UZ-127" vertex="1">
          <mxGeometry x="-90" width="610" height="620" as="geometry" />
        </mxCell>
        <mxCell id="7NpBARmA--catoXs38UZ-131" style="edgeStyle=orthogonalEdgeStyle;rounded=0;orthogonalLoop=1;jettySize=auto;html=1;strokeColor=#999999;" parent="7NpBARmA--catoXs38UZ-127" source="7NpBARmA--catoXs38UZ-128" target="7NpBARmA--catoXs38UZ-130" edge="1">
          <mxGeometry relative="1" as="geometry">
            <Array as="points">
              <mxPoint x="30" y="180" />
              <mxPoint x="30" y="180" />
            </Array>
          </mxGeometry>
        </mxCell>
        <mxCell id="7NpBARmA--catoXs38UZ-221" value="kisDeliveryToken&lt;br&gt;userInfo" style="edgeLabel;html=1;align=center;verticalAlign=middle;resizable=0;points=[];" parent="7NpBARmA--catoXs38UZ-131" vertex="1" connectable="0">
          <mxGeometry x="0.5581" relative="1" as="geometry">
            <mxPoint y="-66" as="offset" />
          </mxGeometry>
        </mxCell>
        <mxCell id="7NpBARmA--catoXs38UZ-128" value="КИС Доставка" style="ellipse;shape=cloud;whiteSpace=wrap;html=1;shadow=0;" parent="7NpBARmA--catoXs38UZ-127" vertex="1">
          <mxGeometry x="17.88" y="20" width="132.12" height="80" as="geometry" />
        </mxCell>
        <mxCell id="7NpBARmA--catoXs38UZ-129" value="ICOSTA" style="ellipse;shape=cloud;rounded=0;whiteSpace=wrap;html=1;shadow=0;" parent="7NpBARmA--catoXs38UZ-127" vertex="1">
          <mxGeometry x="186.20999999999998" y="40" width="140.15" height="70" as="geometry" />
        </mxCell>
        <mxCell id="7NpBARmA--catoXs38UZ-130" value="Создание AuthToken TA" style="rounded=1;whiteSpace=wrap;html=1;" parent="7NpBARmA--catoXs38UZ-127" vertex="1">
          <mxGeometry x="-60.00121212121212" y="190" width="116.2121212121212" height="60" as="geometry" />
        </mxCell>
        <mxCell id="7NpBARmA--catoXs38UZ-137" value="" style="rounded=1;whiteSpace=wrap;html=1;dashed=1;" parent="7NpBARmA--catoXs38UZ-127" vertex="1">
          <mxGeometry x="8.94" y="580" width="491.06" height="60" as="geometry" />
        </mxCell>
        <mxCell id="wisPoEuZqD0PyO1cnrEd-76" style="edgeStyle=orthogonalEdgeStyle;rounded=0;orthogonalLoop=1;jettySize=auto;html=1;strokeWidth=1;strokeColor=#999999;" parent="7NpBARmA--catoXs38UZ-127" source="7NpBARmA--catoXs38UZ-138" target="7NpBARmA--catoXs38UZ-129" edge="1">
          <mxGeometry relative="1" as="geometry">
            <Array as="points">
              <mxPoint x="-70" y="610" />
              <mxPoint x="-70" y="20" />
              <mxPoint x="240" y="20" />
            </Array>
          </mxGeometry>
        </mxCell>
        <mxCell id="7NpBARmA--catoXs38UZ-138" value="/login" style="rounded=0;whiteSpace=wrap;html=1;fillColor=#f5f5f5;fontColor=#333333;strokeColor=none;" parent="7NpBARmA--catoXs38UZ-127" vertex="1">
          <mxGeometry x="99.99818181818182" y="590" width="98.33333333333333" height="40" as="geometry" />
        </mxCell>
        <mxCell id="7NpBARmA--catoXs38UZ-136" style="edgeStyle=orthogonalEdgeStyle;rounded=0;orthogonalLoop=1;jettySize=auto;html=1;strokeColor=#999999;" parent="7NpBARmA--catoXs38UZ-127" source="7NpBARmA--catoXs38UZ-130" edge="1">
          <mxGeometry relative="1" as="geometry">
            <mxPoint x="120" y="590" as="targetPoint" />
            <Array as="points">
              <mxPoint x="-20" y="420" />
              <mxPoint x="120" y="420" />
            </Array>
          </mxGeometry>
        </mxCell>
        <mxCell id="wisPoEuZqD0PyO1cnrEd-96" value="Text" style="edgeLabel;html=1;align=center;verticalAlign=middle;resizable=0;points=[];" parent="7NpBARmA--catoXs38UZ-136" vertex="1" connectable="0">
          <mxGeometry x="-0.9523" y="-2" relative="1" as="geometry">
            <mxPoint as="offset" />
          </mxGeometry>
        </mxCell>
        <mxCell id="7NpBARmA--catoXs38UZ-139" value="REST API" style="text;html=1;strokeColor=none;fillColor=none;align=center;verticalAlign=middle;whiteSpace=wrap;rounded=0;" parent="7NpBARmA--catoXs38UZ-127" vertex="1">
          <mxGeometry y="550" width="86.59" height="30" as="geometry" />
        </mxCell>
        <mxCell id="7NpBARmA--catoXs38UZ-160" value="/login_by_key" style="rounded=0;whiteSpace=wrap;html=1;fillColor=#f5f5f5;fontColor=#333333;strokeColor=none;" parent="7NpBARmA--catoXs38UZ-127" vertex="1">
          <mxGeometry x="339.6969696969697" y="590" width="98.33333333333333" height="40" as="geometry" />
        </mxCell>
        <mxCell id="7NpBARmA--catoXs38UZ-165" value="" style="rounded=1;whiteSpace=wrap;html=1;dashed=1;" parent="7NpBARmA--catoXs38UZ-127" vertex="1">
          <mxGeometry x="150" y="310" width="358.03" height="110" as="geometry" />
        </mxCell>
        <mxCell id="7NpBARmA--catoXs38UZ-142" value="Создание SharedToken" style="rounded=1;whiteSpace=wrap;html=1;" parent="7NpBARmA--catoXs38UZ-127" vertex="1">
          <mxGeometry x="167.87848484848485" y="330" width="116.2121212121212" height="60" as="geometry" />
        </mxCell>
        <mxCell id="7NpBARmA--catoXs38UZ-162" style="edgeStyle=orthogonalEdgeStyle;rounded=0;orthogonalLoop=1;jettySize=auto;html=1;strokeColor=#999999;" parent="7NpBARmA--catoXs38UZ-127" source="7NpBARmA--catoXs38UZ-160" target="7NpBARmA--catoXs38UZ-167" edge="1">
          <mxGeometry relative="1" as="geometry">
            <Array as="points">
              <mxPoint x="410" y="490" />
              <mxPoint x="410" y="490" />
            </Array>
          </mxGeometry>
        </mxCell>
        <mxCell id="7NpBARmA--catoXs38UZ-163" value="sharedToken" style="edgeLabel;html=1;align=center;verticalAlign=middle;resizable=0;points=[];" parent="7NpBARmA--catoXs38UZ-162" vertex="1" connectable="0">
          <mxGeometry x="-0.377" relative="1" as="geometry">
            <mxPoint x="11" y="54" as="offset" />
          </mxGeometry>
        </mxCell>
        <mxCell id="7NpBARmA--catoXs38UZ-153" style="edgeStyle=orthogonalEdgeStyle;rounded=0;orthogonalLoop=1;jettySize=auto;html=1;strokeColor=#999999;" parent="7NpBARmA--catoXs38UZ-127" source="7NpBARmA--catoXs38UZ-142" target="7NpBARmA--catoXs38UZ-138" edge="1">
          <mxGeometry relative="1" as="geometry">
            <Array as="points">
              <mxPoint x="198" y="490" />
              <mxPoint x="180" y="490" />
            </Array>
          </mxGeometry>
        </mxCell>
        <mxCell id="7NpBARmA--catoXs38UZ-157" value="sharedToken" style="edgeLabel;html=1;align=center;verticalAlign=middle;resizable=0;points=[];" parent="7NpBARmA--catoXs38UZ-153" vertex="1" connectable="0">
          <mxGeometry x="-0.1183" relative="1" as="geometry">
            <mxPoint x="2" y="-73" as="offset" />
          </mxGeometry>
        </mxCell>
        <mxCell id="7NpBARmA--catoXs38UZ-166" value="SharedTokenParser" style="text;html=1;strokeColor=none;fillColor=none;align=center;verticalAlign=middle;whiteSpace=wrap;rounded=0;" parent="7NpBARmA--catoXs38UZ-127" vertex="1">
          <mxGeometry x="390" y="280" width="110" height="30" as="geometry" />
        </mxCell>
        <mxCell id="wisPoEuZqD0PyO1cnrEd-99" style="edgeStyle=orthogonalEdgeStyle;rounded=0;orthogonalLoop=1;jettySize=auto;html=1;strokeColor=#999999;" parent="7NpBARmA--catoXs38UZ-127" source="7NpBARmA--catoXs38UZ-167" target="wisPoEuZqD0PyO1cnrEd-98" edge="1">
          <mxGeometry relative="1" as="geometry">
            <Array as="points">
              <mxPoint x="369" y="220" />
            </Array>
          </mxGeometry>
        </mxCell>
        <mxCell id="wisPoEuZqD0PyO1cnrEd-100" value="authToken" style="edgeLabel;html=1;align=center;verticalAlign=middle;resizable=0;points=[];" parent="wisPoEuZqD0PyO1cnrEd-99" vertex="1" connectable="0">
          <mxGeometry x="-0.9323" relative="1" as="geometry">
            <mxPoint as="offset" />
          </mxGeometry>
        </mxCell>
        <mxCell id="wisPoEuZqD0PyO1cnrEd-108" style="edgeStyle=orthogonalEdgeStyle;rounded=0;orthogonalLoop=1;jettySize=auto;html=1;" parent="7NpBARmA--catoXs38UZ-127" source="7NpBARmA--catoXs38UZ-167" target="7NpBARmA--catoXs38UZ-160" edge="1">
          <mxGeometry relative="1" as="geometry">
            <Array as="points">
              <mxPoint x="350" y="490" />
              <mxPoint x="350" y="490" />
            </Array>
          </mxGeometry>
        </mxCell>
        <mxCell id="wisPoEuZqD0PyO1cnrEd-109" value="authToken" style="edgeLabel;html=1;align=center;verticalAlign=middle;resizable=0;points=[];" parent="wisPoEuZqD0PyO1cnrEd-108" vertex="1" connectable="0">
          <mxGeometry x="-0.9189" y="-1" relative="1" as="geometry">
            <mxPoint as="offset" />
          </mxGeometry>
        </mxCell>
        <mxCell id="7NpBARmA--catoXs38UZ-167" value="Парсинг &lt;br&gt;SharedToken" style="rounded=1;whiteSpace=wrap;html=1;" parent="7NpBARmA--catoXs38UZ-127" vertex="1">
          <mxGeometry x="310.90878787878785" y="330" width="116.2121212121212" height="60" as="geometry" />
        </mxCell>
        <mxCell id="wisPoEuZqD0PyO1cnrEd-75" style="edgeStyle=orthogonalEdgeStyle;rounded=0;orthogonalLoop=1;jettySize=auto;html=1;entryX=0.07;entryY=0.4;entryDx=0;entryDy=0;entryPerimeter=0;strokeColor=#999999;" parent="7NpBARmA--catoXs38UZ-127" source="7NpBARmA--catoXs38UZ-138" target="7NpBARmA--catoXs38UZ-128" edge="1">
          <mxGeometry relative="1" as="geometry">
            <Array as="points">
              <mxPoint x="-70" y="610" />
              <mxPoint x="-70" y="52" />
            </Array>
          </mxGeometry>
        </mxCell>
        <mxCell id="wisPoEuZqD0PyO1cnrEd-77" value="login&lt;br&gt;password" style="edgeLabel;html=1;align=center;verticalAlign=middle;resizable=0;points=[];" parent="wisPoEuZqD0PyO1cnrEd-75" vertex="1" connectable="0">
          <mxGeometry x="-0.954" relative="1" as="geometry">
            <mxPoint x="-10" as="offset" />
          </mxGeometry>
        </mxCell>
        <mxCell id="wisPoEuZqD0PyO1cnrEd-88" style="edgeStyle=orthogonalEdgeStyle;rounded=0;orthogonalLoop=1;jettySize=auto;html=1;strokeColor=#999999;" parent="7NpBARmA--catoXs38UZ-127" source="7NpBARmA--catoXs38UZ-129" target="7NpBARmA--catoXs38UZ-142" edge="1">
          <mxGeometry relative="1" as="geometry">
            <mxPoint x="309.9987878787879" y="150" as="sourcePoint" />
            <Array as="points">
              <mxPoint x="256" y="290" />
              <mxPoint x="226" y="290" />
            </Array>
          </mxGeometry>
        </mxCell>
        <mxCell id="wisPoEuZqD0PyO1cnrEd-89" value="mrmAuthToken" style="edgeLabel;html=1;align=center;verticalAlign=middle;resizable=0;points=[];" parent="wisPoEuZqD0PyO1cnrEd-88" vertex="1" connectable="0">
          <mxGeometry x="-0.7825" y="1" relative="1" as="geometry">
            <mxPoint x="-16" y="-1" as="offset" />
          </mxGeometry>
        </mxCell>
        <mxCell id="wisPoEuZqD0PyO1cnrEd-91" style="edgeStyle=orthogonalEdgeStyle;rounded=0;orthogonalLoop=1;jettySize=auto;html=1;exitX=0.356;exitY=0.978;exitDx=0;exitDy=0;exitPerimeter=0;strokeColor=#999999;" parent="7NpBARmA--catoXs38UZ-127" source="7NpBARmA--catoXs38UZ-130" target="7NpBARmA--catoXs38UZ-142" edge="1">
          <mxGeometry relative="1" as="geometry">
            <mxPoint x="10" y="265" as="sourcePoint" />
            <Array as="points">
              <mxPoint x="-20" y="249" />
              <mxPoint x="-20" y="290" />
              <mxPoint x="190" y="290" />
            </Array>
          </mxGeometry>
        </mxCell>
        <mxCell id="wisPoEuZqD0PyO1cnrEd-97" value="authToken" style="edgeLabel;html=1;align=center;verticalAlign=middle;resizable=0;points=[];" parent="wisPoEuZqD0PyO1cnrEd-91" vertex="1" connectable="0">
          <mxGeometry x="-0.8801" y="-2" relative="1" as="geometry">
            <mxPoint as="offset" />
          </mxGeometry>
        </mxCell>
        <mxCell id="wisPoEuZqD0PyO1cnrEd-101" style="edgeStyle=orthogonalEdgeStyle;rounded=0;orthogonalLoop=1;jettySize=auto;html=1;strokeColor=#999999;" parent="7NpBARmA--catoXs38UZ-127" source="wisPoEuZqD0PyO1cnrEd-98" target="7NpBARmA--catoXs38UZ-128" edge="1">
          <mxGeometry relative="1" as="geometry">
            <Array as="points">
              <mxPoint x="100" y="130" />
              <mxPoint x="100" y="130" />
            </Array>
          </mxGeometry>
        </mxCell>
        <mxCell id="wisPoEuZqD0PyO1cnrEd-102" value="Запрос проверки &lt;br&gt;токена" style="edgeLabel;html=1;align=center;verticalAlign=middle;resizable=0;points=[];" parent="wisPoEuZqD0PyO1cnrEd-101" vertex="1" connectable="0">
          <mxGeometry x="-0.7209" y="1" relative="1" as="geometry">
            <mxPoint x="1" y="-9" as="offset" />
          </mxGeometry>
        </mxCell>
        <mxCell id="wisPoEuZqD0PyO1cnrEd-98" value="Парсинг &lt;br&gt;AuthToken TA" style="rounded=1;whiteSpace=wrap;html=1;" parent="7NpBARmA--catoXs38UZ-127" vertex="1">
          <mxGeometry x="69.99878787878788" y="190" width="116.2121212121212" height="60" as="geometry" />
        </mxCell>
        <mxCell id="wisPoEuZqD0PyO1cnrEd-106" value="" style="rounded=1;whiteSpace=wrap;html=1;fillColor=none;dashed=1;" parent="7NpBARmA--catoXs38UZ-127" vertex="1">
          <mxGeometry x="-63.79" y="150" width="273.79" height="110" as="geometry" />
        </mxCell>
        <mxCell id="7NpBARmA--catoXs38UZ-134" style="edgeStyle=orthogonalEdgeStyle;rounded=0;orthogonalLoop=1;jettySize=auto;html=1;" parent="1" source="7NpBARmA--catoXs38UZ-133" target="7NpBARmA--catoXs38UZ-130" edge="1">
          <mxGeometry relative="1" as="geometry" />
        </mxCell>
        <mxCell id="7NpBARmA--catoXs38UZ-133" value="JWT_SECRET" style="rounded=0;whiteSpace=wrap;html=1;dashed=1;" parent="1" vertex="1">
          <mxGeometry x="-660" y="-600" width="120" height="60" as="geometry" />
        </mxCell>
        <mxCell id="7NpBARmA--catoXs38UZ-168" style="edgeStyle=orthogonalEdgeStyle;rounded=0;orthogonalLoop=1;jettySize=auto;html=1;" parent="1" source="7NpBARmA--catoXs38UZ-158" target="7NpBARmA--catoXs38UZ-165" edge="1">
          <mxGeometry relative="1" as="geometry">
            <Array as="points">
              <mxPoint x="-350" y="-440" />
              <mxPoint x="-350" y="-440" />
            </Array>
          </mxGeometry>
        </mxCell>
        <mxCell id="7NpBARmA--catoXs38UZ-158" value="JWT_SHARED_SECRET" style="rounded=0;whiteSpace=wrap;html=1;dashed=1;" parent="1" vertex="1">
          <mxGeometry x="-690" y="-470" width="150" height="60" as="geometry" />
        </mxCell>
        <mxCell id="7NpBARmA--catoXs38UZ-173" value="LoginReposne&lt;br&gt;authToken&lt;br&gt;sharedToken" style="rounded=0;whiteSpace=wrap;html=1;" parent="1" vertex="1">
          <mxGeometry x="-270" y="-110" width="110" height="50" as="geometry" />
        </mxCell>
        <mxCell id="7NpBARmA--catoXs38UZ-175" style="edgeStyle=orthogonalEdgeStyle;rounded=0;orthogonalLoop=1;jettySize=auto;html=1;" parent="1" source="7NpBARmA--catoXs38UZ-138" target="7NpBARmA--catoXs38UZ-173" edge="1">
          <mxGeometry relative="1" as="geometry">
            <Array as="points">
              <mxPoint x="-250" y="-120" />
              <mxPoint x="-250" y="-120" />
            </Array>
          </mxGeometry>
        </mxCell>
        <mxCell id="7NpBARmA--catoXs38UZ-176" value="LoginByKeyReposne&lt;br&gt;authToken" style="rounded=0;whiteSpace=wrap;html=1;" parent="1" vertex="1">
          <mxGeometry x="-20" y="-110" width="120" height="50" as="geometry" />
        </mxCell>
        <mxCell id="7NpBARmA--catoXs38UZ-177" style="edgeStyle=orthogonalEdgeStyle;rounded=0;orthogonalLoop=1;jettySize=auto;html=1;" parent="1" source="7NpBARmA--catoXs38UZ-160" target="7NpBARmA--catoXs38UZ-176" edge="1">
          <mxGeometry relative="1" as="geometry">
            <Array as="points">
              <mxPoint y="-130" />
              <mxPoint y="-130" />
            </Array>
          </mxGeometry>
        </mxCell>
        <mxCell id="7NpBARmA--catoXs38UZ-208" value="JWT_SECRET" style="rounded=0;whiteSpace=wrap;html=1;dashed=1;" parent="1" vertex="1">
          <mxGeometry x="-650" y="-1285.82" width="120" height="60" as="geometry" />
        </mxCell>
        <mxCell id="7NpBARmA--catoXs38UZ-212" value="LoginReposne&lt;br&gt;authToken&lt;br&gt;" style="rounded=0;whiteSpace=wrap;html=1;" parent="1" vertex="1">
          <mxGeometry x="-340" y="-1030" width="110" height="50" as="geometry" />
        </mxCell>
        <mxCell id="7NpBARmA--catoXs38UZ-213" style="edgeStyle=orthogonalEdgeStyle;rounded=0;orthogonalLoop=1;jettySize=auto;html=1;exitX=0.926;exitY=1.007;exitDx=0;exitDy=0;exitPerimeter=0;entryX=0.199;entryY=-0.016;entryDx=0;entryDy=0;entryPerimeter=0;" parent="1" source="7NpBARmA--catoXs38UZ-189" target="7NpBARmA--catoXs38UZ-212" edge="1">
          <mxGeometry relative="1" as="geometry" />
        </mxCell>
        <mxCell id="7NpBARmA--catoXs38UZ-181" value="" style="rounded=0;whiteSpace=wrap;html=1;" parent="1" vertex="1">
          <mxGeometry x="-480" y="-1403.88" width="210" height="317.01" as="geometry" />
        </mxCell>
        <mxCell id="7NpBARmA--catoXs38UZ-182" value="Авторизация" style="text;html=1;strokeColor=none;fillColor=none;align=center;verticalAlign=middle;whiteSpace=wrap;rounded=0;" parent="1" vertex="1">
          <mxGeometry x="-450" y="-1420" width="90" height="16.119402985074625" as="geometry" />
        </mxCell>
        <mxCell id="7NpBARmA--catoXs38UZ-183" style="edgeStyle=orthogonalEdgeStyle;rounded=0;orthogonalLoop=1;jettySize=auto;html=1;exitX=0.891;exitY=0.808;exitDx=0;exitDy=0;exitPerimeter=0;entryX=0.826;entryY=0.037;entryDx=0;entryDy=0;entryPerimeter=0;" parent="1" source="7NpBARmA--catoXs38UZ-184" target="7NpBARmA--catoXs38UZ-187" edge="1">
          <mxGeometry relative="1" as="geometry" />
        </mxCell>
        <mxCell id="7NpBARmA--catoXs38UZ-218" value="kisDeliveryToken&lt;br&gt;userInfo" style="edgeLabel;html=1;align=center;verticalAlign=middle;resizable=0;points=[];" parent="7NpBARmA--catoXs38UZ-183" vertex="1" connectable="0">
          <mxGeometry x="0.0987" relative="1" as="geometry">
            <mxPoint as="offset" />
          </mxGeometry>
        </mxCell>
        <mxCell id="7NpBARmA--catoXs38UZ-184" value="КИС Доставка" style="ellipse;shape=cloud;whiteSpace=wrap;html=1;" parent="1" vertex="1">
          <mxGeometry x="-430" y="-1393.13" width="120" height="53.13" as="geometry" />
        </mxCell>
        <mxCell id="7NpBARmA--catoXs38UZ-187" value="Создание/Парсинг AuthToken" style="rounded=1;whiteSpace=wrap;html=1;" parent="1" vertex="1">
          <mxGeometry x="-430" y="-1279.77" width="130" height="47.91" as="geometry" />
        </mxCell>
        <mxCell id="7NpBARmA--catoXs38UZ-188" value="" style="rounded=1;whiteSpace=wrap;html=1;dashed=1;" parent="1" vertex="1">
          <mxGeometry x="-440" y="-1108.3600000000001" width="150" height="32.24" as="geometry" />
        </mxCell>
        <mxCell id="wisPoEuZqD0PyO1cnrEd-21" style="edgeStyle=orthogonalEdgeStyle;rounded=0;orthogonalLoop=1;jettySize=auto;html=1;exitX=0.063;exitY=0.025;exitDx=0;exitDy=0;exitPerimeter=0;entryX=0.07;entryY=0.4;entryDx=0;entryDy=0;entryPerimeter=0;" parent="1" source="7NpBARmA--catoXs38UZ-189" target="7NpBARmA--catoXs38UZ-184" edge="1">
          <mxGeometry relative="1" as="geometry">
            <mxPoint x="-375" y="-1102.9850746268658" as="sourcePoint" />
            <mxPoint x="-400" y="-1232" as="targetPoint" />
            <Array as="points">
              <mxPoint x="-413" y="-1170" />
              <mxPoint x="-460" y="-1170" />
              <mxPoint x="-460" y="-1372" />
            </Array>
          </mxGeometry>
        </mxCell>
        <mxCell id="wisPoEuZqD0PyO1cnrEd-22" value="login&lt;br&gt;password" style="edgeLabel;html=1;align=center;verticalAlign=middle;resizable=0;points=[];" parent="wisPoEuZqD0PyO1cnrEd-21" vertex="1" connectable="0">
          <mxGeometry x="-0.0945" relative="1" as="geometry">
            <mxPoint as="offset" />
          </mxGeometry>
        </mxCell>
        <mxCell id="7NpBARmA--catoXs38UZ-189" value="/login" style="rounded=0;whiteSpace=wrap;html=1;fillColor=#f5f5f5;fontColor=#333333;strokeColor=none;" parent="1" vertex="1">
          <mxGeometry x="-420" y="-1102.9850746268658" width="110" height="21.492537313432834" as="geometry" />
        </mxCell>
        <mxCell id="7NpBARmA--catoXs38UZ-190" style="edgeStyle=orthogonalEdgeStyle;rounded=0;orthogonalLoop=1;jettySize=auto;html=1;" parent="1" source="7NpBARmA--catoXs38UZ-187" edge="1">
          <mxGeometry relative="1" as="geometry">
            <mxPoint x="-320" y="-1102" as="targetPoint" />
            <Array as="points">
              <mxPoint x="-320" y="-1102" />
            </Array>
          </mxGeometry>
        </mxCell>
        <mxCell id="7NpBARmA--catoXs38UZ-191" value="authToken" style="edgeLabel;html=1;align=center;verticalAlign=middle;resizable=0;points=[];" parent="7NpBARmA--catoXs38UZ-190" vertex="1" connectable="0">
          <mxGeometry x="-0.6221" y="1" relative="1" as="geometry">
            <mxPoint x="-1" y="39" as="offset" />
          </mxGeometry>
        </mxCell>
        <mxCell id="7NpBARmA--catoXs38UZ-192" value="REST API" style="text;html=1;strokeColor=none;fillColor=none;align=center;verticalAlign=middle;whiteSpace=wrap;rounded=0;" parent="1" vertex="1">
          <mxGeometry x="-500" y="-1100.2976119402986" width="60" height="16.119402985074625" as="geometry" />
        </mxCell>
        <mxCell id="7NpBARmA--catoXs38UZ-219" value="AS IS" style="text;html=1;strokeColor=none;fillColor=none;align=center;verticalAlign=middle;whiteSpace=wrap;rounded=0;fontSize=22;" parent="1" vertex="1">
          <mxGeometry x="-650" y="-1450" width="60" height="30" as="geometry" />
        </mxCell>
        <mxCell id="7NpBARmA--catoXs38UZ-223" value="TO BE" style="text;html=1;strokeColor=none;fillColor=none;align=center;verticalAlign=middle;whiteSpace=wrap;rounded=0;fontSize=22;" parent="1" vertex="1">
          <mxGeometry x="-520" y="-830" width="80" height="30" as="geometry" />
        </mxCell>
        <mxCell id="7NpBARmA--catoXs38UZ-226" value="" style="group" parent="1" vertex="1" connectable="0">
          <mxGeometry x="-1100" y="-430" width="560" height="90" as="geometry" />
        </mxCell>
        <mxCell id="7NpBARmA--catoXs38UZ-111" value="" style="group" parent="7NpBARmA--catoXs38UZ-226" vertex="1" connectable="0">
          <mxGeometry x="80" width="480" height="90" as="geometry" />
        </mxCell>
        <mxCell id="7NpBARmA--catoXs38UZ-109" value="" style="rounded=0;whiteSpace=wrap;html=1;dashed=1;strokeColor=default;" parent="7NpBARmA--catoXs38UZ-111" vertex="1">
          <mxGeometry x="-80" y="30" width="560" height="60" as="geometry" />
        </mxCell>
        <mxCell id="7NpBARmA--catoXs38UZ-121" value="" style="group" parent="7NpBARmA--catoXs38UZ-111" vertex="1" connectable="0">
          <mxGeometry x="-80" y="30" width="560" height="60" as="geometry" />
        </mxCell>
        <mxCell id="7NpBARmA--catoXs38UZ-224" value="" style="group" parent="7NpBARmA--catoXs38UZ-121" vertex="1" connectable="0">
          <mxGeometry width="560" height="60" as="geometry" />
        </mxCell>
        <mxCell id="7NpBARmA--catoXs38UZ-112" value="ICostaAuthToken" style="rounded=0;whiteSpace=wrap;html=1;dashed=1;strokeColor=default;" parent="7NpBARmA--catoXs38UZ-224" vertex="1">
          <mxGeometry x="280" width="130" height="60" as="geometry" />
        </mxCell>
        <mxCell id="7NpBARmA--catoXs38UZ-113" value="KisDeliveryAuthToken" style="rounded=0;whiteSpace=wrap;html=1;dashed=1;strokeColor=default;" parent="7NpBARmA--catoXs38UZ-224" vertex="1">
          <mxGeometry x="410" width="150" height="60" as="geometry" />
        </mxCell>
        <mxCell id="7NpBARmA--catoXs38UZ-120" value="SharedJwtSecret" style="rounded=0;whiteSpace=wrap;html=1;dashed=1;strokeColor=default;" parent="7NpBARmA--catoXs38UZ-224" vertex="1">
          <mxGeometry width="130" height="60" as="geometry" />
        </mxCell>
        <mxCell id="7NpBARmA--catoXs38UZ-227" value="userInfo:&lt;br&gt;login" style="rounded=0;whiteSpace=wrap;html=1;dashed=1;strokeColor=default;" parent="7NpBARmA--catoXs38UZ-111" vertex="1">
          <mxGeometry x="50" y="30" width="150" height="60" as="geometry" />
        </mxCell>
        <mxCell id="7NpBARmA--catoXs38UZ-110" value="SharedToken" style="text;html=1;strokeColor=none;fillColor=none;align=center;verticalAlign=middle;whiteSpace=wrap;rounded=0;" parent="7NpBARmA--catoXs38UZ-226" vertex="1">
          <mxGeometry width="90" height="30" as="geometry" />
        </mxCell>
        <mxCell id="wisPoEuZqD0PyO1cnrEd-1" style="edgeStyle=orthogonalEdgeStyle;rounded=0;orthogonalLoop=1;jettySize=auto;html=1;" parent="1" source="7NpBARmA--catoXs38UZ-228" target="7NpBARmA--catoXs38UZ-2" edge="1">
          <mxGeometry relative="1" as="geometry">
            <Array as="points">
              <mxPoint x="320" y="1032" />
              <mxPoint x="320" y="1032" />
            </Array>
          </mxGeometry>
        </mxCell>
        <mxCell id="wisPoEuZqD0PyO1cnrEd-2" value="Переход в МРМЭ&lt;br&gt;Параметры:&lt;br&gt;sharedToken&lt;br&gt;номер отправления" style="edgeLabel;html=1;align=center;verticalAlign=middle;resizable=0;points=[];" parent="wisPoEuZqD0PyO1cnrEd-1" vertex="1" connectable="0">
          <mxGeometry x="-0.2328" y="1" relative="1" as="geometry">
            <mxPoint as="offset" />
          </mxGeometry>
        </mxCell>
        <mxCell id="7NpBARmA--catoXs38UZ-207" style="edgeStyle=orthogonalEdgeStyle;rounded=0;orthogonalLoop=1;jettySize=auto;html=1;" parent="1" source="7NpBARmA--catoXs38UZ-208" target="7NpBARmA--catoXs38UZ-187" edge="1">
          <mxGeometry relative="1" as="geometry" />
        </mxCell>
        <mxCell id="wisPoEuZqD0PyO1cnrEd-23" value="LoginRequest&lt;br&gt;login&lt;br style=&quot;border-color: var(--border-color); font-size: 11px;&quot;&gt;&lt;span style=&quot;font-size: 11px;&quot;&gt;password&lt;/span&gt;" style="rounded=0;whiteSpace=wrap;html=1;" parent="1" vertex="1">
          <mxGeometry x="-490" y="-1030" width="110" height="50" as="geometry" />
        </mxCell>
        <mxCell id="wisPoEuZqD0PyO1cnrEd-24" style="edgeStyle=orthogonalEdgeStyle;rounded=0;orthogonalLoop=1;jettySize=auto;html=1;entryX=0.078;entryY=0.982;entryDx=0;entryDy=0;entryPerimeter=0;" parent="1" source="wisPoEuZqD0PyO1cnrEd-23" target="7NpBARmA--catoXs38UZ-189" edge="1">
          <mxGeometry relative="1" as="geometry" />
        </mxCell>
        <mxCell id="wisPoEuZqD0PyO1cnrEd-74" style="edgeStyle=orthogonalEdgeStyle;rounded=0;orthogonalLoop=1;jettySize=auto;html=1;" parent="1" source="wisPoEuZqD0PyO1cnrEd-73" target="7NpBARmA--catoXs38UZ-138" edge="1">
          <mxGeometry relative="1" as="geometry">
            <Array as="points">
              <mxPoint x="-310" y="-140" />
              <mxPoint x="-310" y="-140" />
            </Array>
          </mxGeometry>
        </mxCell>
        <mxCell id="wisPoEuZqD0PyO1cnrEd-73" value="LoginRequest&lt;br&gt;login&lt;br&gt;password" style="rounded=0;whiteSpace=wrap;html=1;" parent="1" vertex="1">
          <mxGeometry x="-400" y="-110" width="110" height="50" as="geometry" />
        </mxCell>
        <mxCell id="wisPoEuZqD0PyO1cnrEd-72" value="Авторизация" style="rounded=1;whiteSpace=wrap;html=1;" parent="1" vertex="1">
          <mxGeometry x="-720.0012121212121" y="-190" width="116.2121212121212" height="60" as="geometry" />
        </mxCell>
        <mxCell id="7NpBARmA--catoXs38UZ-126" value="Бэкенд ТА" style="text;html=1;strokeColor=none;fillColor=none;align=center;verticalAlign=middle;whiteSpace=wrap;rounded=0;" parent="1" vertex="1">
          <mxGeometry x="-440" y="-830" width="120" height="30" as="geometry" />
        </mxCell>
        <mxCell id="wisPoEuZqD0PyO1cnrEd-80" style="edgeStyle=orthogonalEdgeStyle;rounded=0;orthogonalLoop=1;jettySize=auto;html=1;" parent="1" source="wisPoEuZqD0PyO1cnrEd-78" target="7NpBARmA--catoXs38UZ-160" edge="1">
          <mxGeometry relative="1" as="geometry">
            <Array as="points">
              <mxPoint x="-70" y="-130" />
              <mxPoint x="-70" y="-130" />
            </Array>
          </mxGeometry>
        </mxCell>
        <mxCell id="wisPoEuZqD0PyO1cnrEd-78" value="LoginByKeyRequest&lt;br&gt;sharedToken" style="rounded=0;whiteSpace=wrap;html=1;" parent="1" vertex="1">
          <mxGeometry x="-150" y="-110" width="120" height="50" as="geometry" />
        </mxCell>
      </root>
    </mxGraphModel>
  </diagram>
</mxfile>
